<?xml version="1.0" encoding="UTF-8"?>
<svg xmlns="http://www.w3.org/2000/svg" xmlns:xlink="http://www.w3.org/1999/xlink" width="194pt" height="194pt" viewBox="0 0 194 194" version="1.1">
<g id="surface1">
<path style=" stroke:none;fill-rule:evenodd;fill:rgb(1.199341%,45.498657%,73.699951%);fill-opacity:1;" d="M 0.257813 0.675781 L 193.015625 0.675781 L 193.015625 193.433594 L 0.257813 193.433594 L 0.257813 0.675781 "/>
<path style=" stroke:none;fill-rule:evenodd;fill:rgb(100%,100%,100%);fill-opacity:1;" d="M 72.289063 89.507813 C 74.253906 97.363281 70.222656 104.808594 64.636719 109.667969 C 61.535156 112.460938 57.710938 114.320313 53.679688 115.355469 L 54.300781 112.5625 C 61.125 110.703125 67.328125 105.015625 69.1875 98.089844 C 70.53125 93.023438 69.1875 84.855469 60.503906 82.167969 L 61.125 79.167969 C 66.601563 80.410156 71.152344 84.339844 72.289063 89.507813 "/>
<path style=" stroke:none;fill-rule:evenodd;fill:rgb(100%,100%,100%);fill-opacity:1;" d="M 55.644531 75.445313 L 55.230469 77.617188 C 49.648438 78.652344 44.683594 81.339844 40.652344 85.476563 L 36.929688 85.476563 C 41.066406 80.617188 46.132813 77.203125 51.820313 75.445313 L 55.644531 75.445313 "/>
<path style=" stroke:none;fill-rule:evenodd;fill:rgb(100%,100%,100%);fill-opacity:1;" d="M 47.578125 75.445313 C 32.691406 81.648438 19.664063 105.222656 37.449219 118.664063 L 30.3125 118.664063 C 22.144531 110.703125 20.492188 89.609375 40.445313 75.445313 L 47.578125 75.445313 "/>
<path style=" stroke:none;fill-rule:evenodd;fill:rgb(100%,100%,100%);fill-opacity:1;" d="M 37.859375 75.445313 C 29.175781 82.167969 23.59375 91.574219 22.972656 102.328125 C 22.765625 108.324219 24.523438 114.011719 28.246094 118.664063 L 21.835938 118.664063 C 19.5625 114.941406 18.628906 110.597656 18.320313 108.015625 L 22.558594 87.441406 C 24.835938 82.992188 27.933594 79.066406 31.761719 75.445313 L 37.859375 75.445313 "/>
<path style=" stroke:none;fill-rule:evenodd;fill:rgb(100%,100%,100%);fill-opacity:1;" d="M 29.488281 75.445313 C 27.210938 77.722656 25.246094 80.203125 23.488281 82.785156 L 25.039063 75.445313 L 29.488281 75.445313 "/>
<path style=" stroke:none;fill-rule:evenodd;fill:rgb(100%,100%,100%);fill-opacity:1;" d="M 54.300781 82.0625 C 51.507813 82.683594 49.027344 83.820313 46.648438 85.476563 L 42.824219 85.476563 C 45.820313 82.683594 50.472656 80.097656 54.921875 79.167969 L 54.300781 82.0625 "/>
<path style=" stroke:none;fill-rule:evenodd;fill:rgb(100%,100%,100%);fill-opacity:1;" d="M 53.578125 85.476563 L 49.648438 85.476563 C 50.992188 84.753906 52.4375 84.027344 53.988281 83.71875 L 53.578125 85.476563 "/>
<path style=" stroke:none;fill-rule:evenodd;fill:rgb(100%,100%,100%);fill-opacity:1;" d="M 35.277344 91.679688 L 36.101563 91.679688 C 34.550781 94.78125 33.519531 98.191406 33.621094 101.8125 L 33.207031 101.8125 L 31.863281 108.53125 L 35.277344 108.53125 C 37.550781 112.976563 41.480469 115.976563 46.960938 117.113281 L 46.648438 118.664063 L 40.753906 118.664063 C 34.242188 115.769531 30.210938 108.945313 30.417969 101.8125 C 30.625 95.917969 32.691406 90.746094 36.414063 86.199219 L 35.277344 91.679688 "/>
<path style=" stroke:none;fill-rule:evenodd;fill:rgb(100%,100%,100%);fill-opacity:1;" d="M 45.203125 91.679688 C 42.71875 95.195313 42.304688 96.640625 42.203125 99.535156 C 42.203125 100.261719 42.304688 101.085938 42.511719 101.8125 L 39.824219 101.8125 C 39.410156 98.191406 40.753906 94.574219 42.71875 91.679688 L 45.203125 91.679688 "/>
<path style=" stroke:none;fill-rule:evenodd;fill:rgb(100%,100%,100%);fill-opacity:1;" d="M 49.75 91.679688 C 47.167969 93.851563 44.683594 97.570313 46.546875 101.8125 L 44.066406 101.8125 C 43.03125 98.398438 44.375 94.574219 47.269531 91.679688 L 49.75 91.679688 "/>
<path style=" stroke:none;fill-rule:evenodd;fill:rgb(100%,100%,100%);fill-opacity:1;" d="M 40.859375 91.679688 C 39.101563 94.675781 38.066406 97.882813 38.378906 101.8125 L 35.070313 101.8125 C 34.964844 98.191406 36 94.675781 37.65625 91.679688 L 40.859375 91.679688 "/>
<path style=" stroke:none;fill-rule:evenodd;fill:rgb(100%,100%,100%);fill-opacity:1;" d="M 49.855469 101.8125 L 48.40625 101.8125 C 45.925781 98.8125 48.097656 94.160156 51.820313 92.09375 L 49.855469 101.8125 "/>
<path style=" stroke:none;fill-rule:evenodd;fill:rgb(100%,100%,100%);fill-opacity:1;" d="M 48.097656 111.117188 C 46.441406 110.597656 44.789063 109.773438 43.445313 108.53125 L 48.613281 108.53125 L 48.097656 111.117188 "/>
<path style=" stroke:none;fill-rule:evenodd;fill:rgb(100%,100%,100%);fill-opacity:1;" d="M 41.273438 108.53125 C 42.925781 110.597656 45.304688 111.941406 47.890625 112.667969 L 47.269531 115.5625 C 43.132813 114.839844 39.207031 112.355469 37.136719 108.53125 L 41.273438 108.53125 "/>
<path style=" stroke:none;fill-rule:evenodd;fill:rgb(100%,100%,100%);fill-opacity:1;" d="M 20.078125 118.664063 L 16.148438 118.664063 L 17.492188 112.148438 C 18.113281 114.421875 18.941406 116.59375 20.078125 118.664063 "/>
<path style=" stroke:none;fill-rule:evenodd;fill:rgb(100%,100%,100%);fill-opacity:1;" d="M 90.382813 82.167969 C 89.761719 79.996094 88.832031 77.515625 87.589844 75.445313 L 91.726563 75.445313 L 90.382813 82.167969 "/>
<path style=" stroke:none;fill-rule:evenodd;fill:rgb(100%,100%,100%);fill-opacity:1;" d="M 77.253906 75.445313 C 80.148438 78.34375 81.800781 81.753906 82.730469 85.476563 L 77.976563 85.476563 C 76.425781 81.234375 73.425781 77.617188 69.601563 75.445313 L 77.253906 75.445313 "/>
<path style=" stroke:none;fill-rule:evenodd;fill:rgb(100%,100%,100%);fill-opacity:1;" d="M 85.832031 75.445313 C 87.386719 77.515625 89.144531 82.476563 89.453125 85.476563 L 84.386719 85.476563 C 83.558594 81.855469 81.800781 78.445313 79.320313 75.445313 L 85.832031 75.445313 "/>
<path style=" stroke:none;fill-rule:evenodd;fill:rgb(100%,100%,100%);fill-opacity:1;" d="M 65.878906 75.445313 C 70.53125 77.101563 74.5625 80.925781 76.21875 85.476563 L 74.355469 85.476563 L 73.738281 88.785156 C 72.394531 83.71875 67.742188 78.960938 61.433594 77.722656 L 61.847656 75.445313 L 65.878906 75.445313 "/>
<path style=" stroke:none;fill-rule:evenodd;fill:rgb(100%,100%,100%);fill-opacity:1;" d="M 67.949219 92.300781 C 68.980469 99.226563 64.535156 105.429688 59.054688 108.839844 C 57.710938 109.667969 56.160156 110.394531 54.609375 110.804688 L 55.128906 108.21875 C 60.191406 106.464844 65.050781 102.019531 65.671875 96.539063 C 66.191406 92.503906 64.328125 88.265625 59.675781 86.40625 L 60.191406 83.71875 C 64.226563 84.855469 67.328125 88.265625 67.949219 92.300781 "/>
<path style=" stroke:none;fill-rule:evenodd;fill:rgb(100%,100%,100%);fill-opacity:1;" d="M 64.121094 94.261719 C 64.535156 99.328125 61.019531 104.292969 55.539063 106.464844 L 55.953125 104.394531 C 59.367188 102.742188 62.261719 99.328125 62.054688 95.195313 C 61.847656 93.230469 60.710938 91.265625 58.847656 90.230469 L 59.367188 87.957031 C 61.949219 88.992188 63.914063 91.472656 64.121094 94.261719 "/>
<path style=" stroke:none;fill-rule:evenodd;fill:rgb(100%,100%,100%);fill-opacity:1;" d="M 56.367188 102.328125 L 58.539063 91.886719 C 63.089844 95.402344 58.746094 101.292969 56.367188 102.328125 "/>
<path style=" stroke:none;fill-rule:evenodd;fill:rgb(100%,100%,100%);fill-opacity:1;" d="M 85.628906 103.464844 L 82.421875 103.464844 C 83.664063 100.363281 84.59375 96.953125 84.902344 93.4375 L 87.695313 93.4375 L 85.628906 103.464844 "/>
<path style=" stroke:none;fill-rule:evenodd;fill:rgb(100%,100%,100%);fill-opacity:1;" d="M 77.5625 93.4375 C 77.460938 96.953125 76.320313 100.363281 74.769531 103.464844 L 71.566406 103.464844 C 73.21875 100.46875 74.355469 97.054688 74.355469 93.4375 L 77.5625 93.4375 "/>
<path style=" stroke:none;fill-rule:evenodd;fill:rgb(100%,100%,100%);fill-opacity:1;" d="M 83.351563 93.4375 C 83.144531 96.953125 82.109375 100.363281 80.769531 103.464844 L 76.527344 103.464844 C 77.976563 100.363281 78.90625 96.953125 79.011719 93.4375 L 83.351563 93.4375 "/>
<path style=" stroke:none;fill-rule:evenodd;fill:rgb(100%,100%,100%);fill-opacity:1;" d="M 69.085938 111.324219 C 65.878906 114.632813 61.949219 117.113281 57.917969 118.664063 L 53.058594 118.664063 L 53.371094 117.007813 C 60.191406 115.457031 66.085938 111.738281 70.222656 105.738281 L 69.085938 111.324219 "/>
<path style=" stroke:none;fill-rule:evenodd;fill:rgb(100%,100%,100%);fill-opacity:1;" d="M 61.640625 118.664063 C 64.121094 117.421875 66.398438 115.769531 68.566406 113.90625 L 67.636719 118.664063 L 61.640625 118.664063 "/>
<path style=" stroke:none;fill-rule:evenodd;fill:rgb(100%,100%,100%);fill-opacity:1;" d="M 103.203125 82.992188 L 104.339844 77.617188 L 114.164063 77.617188 L 114.574219 75.757813 L 102.480469 75.757813 L 98.964844 92.609375 L 111.269531 92.609375 L 111.679688 90.746094 L 101.652344 90.746094 L 102.890625 84.855469 L 111.679688 84.855469 L 112.09375 82.992188 L 103.203125 82.992188 "/>
<path style=" stroke:none;fill-rule:evenodd;fill:rgb(100%,100%,100%);fill-opacity:1;" d="M 115.816406 80.410156 L 113.335938 92.609375 L 115.402344 92.609375 L 116.851563 85.992188 C 117.058594 84.855469 117.78125 81.441406 121.191406 81.441406 C 123.15625 81.441406 123.363281 82.683594 123.363281 83.199219 C 123.363281 83.511719 123.363281 83.925781 123.054688 85.164063 L 121.503906 92.609375 L 123.675781 92.609375 L 125.328125 84.441406 C 125.433594 84.027344 125.535156 83.304688 125.535156 82.890625 C 125.535156 80.824219 123.882813 79.890625 122.226563 79.890625 C 120.46875 79.890625 119.023438 80.511719 117.78125 81.753906 L 117.675781 81.753906 L 117.988281 80.410156 L 115.816406 80.410156 "/>
<path style=" stroke:none;fill-rule:evenodd;fill:rgb(100%,100%,100%);fill-opacity:1;" d="M 127.085938 94.058594 C 127.292969 97.46875 130.703125 97.363281 132.046875 97.363281 C 133.496094 97.363281 137.21875 97.261719 138.355469 91.679688 L 140.734375 80.410156 L 138.769531 80.410156 L 138.460938 82.0625 L 138.355469 82.0625 C 137.734375 80.410156 135.875 79.890625 134.320313 79.890625 C 131.015625 79.890625 127.707031 82.683594 127.707031 87.851563 C 127.707031 88.886719 127.914063 93.125 132.253906 93.125 C 134.320313 93.125 135.253906 92.609375 136.390625 91.058594 L 136.183594 91.988281 C 135.976563 93.4375 135.046875 95.8125 132.046875 95.8125 C 131.015625 95.8125 129.257813 95.710938 129.152344 94.058594 Z M 132.980469 91.679688 C 131.945313 91.679688 129.980469 91.367188 129.980469 87.851563 C 129.980469 84.960938 131.53125 81.441406 134.738281 81.441406 C 136.597656 81.441406 137.734375 82.476563 137.734375 84.648438 C 137.734375 86.097656 137.21875 91.679688 132.980469 91.679688 "/>
<path style=" stroke:none;fill-rule:evenodd;fill:rgb(100%,100%,100%);fill-opacity:1;" d="M 145.179688 75.757813 L 141.664063 92.609375 L 143.835938 92.609375 L 147.351563 75.757813 L 145.179688 75.757813 "/>
<path style=" stroke:none;fill-rule:evenodd;fill:rgb(100%,100%,100%);fill-opacity:1;" d="M 149.832031 80.410156 L 147.246094 92.609375 L 149.417969 92.609375 L 152.003906 80.410156 Z M 150.347656 77.929688 L 152.519531 77.929688 L 152.933594 75.757813 L 150.863281 75.757813 L 150.347656 77.929688 "/>
<path style=" stroke:none;fill-rule:evenodd;fill:rgb(100%,100%,100%);fill-opacity:1;" d="M 152.621094 88.992188 C 152.3125 91.058594 153.65625 93.125 157.585938 93.125 C 162.546875 93.125 163.167969 89.921875 163.167969 88.472656 C 163.167969 86.507813 161.824219 86.199219 159.550781 85.578125 C 157.6875 85.164063 156.34375 85.164063 156.34375 83.820313 C 156.34375 82.371094 157.6875 81.441406 159.550781 81.441406 C 161.722656 81.441406 161.824219 82.785156 161.824219 83.304688 L 161.824219 83.613281 L 163.890625 83.613281 C 163.996094 82.167969 163.480469 79.890625 159.445313 79.890625 C 154.484375 79.890625 154.175781 83.199219 154.175781 84.339844 C 154.175781 86.097656 155.519531 86.613281 157.480469 87.027344 C 159.550781 87.441406 160.996094 87.441406 160.996094 88.992188 C 160.996094 90.4375 159.652344 91.679688 157.585938 91.679688 C 155.3125 91.679688 154.589844 90.230469 154.691406 88.992188 L 152.621094 88.992188 "/>
<path style=" stroke:none;fill-rule:evenodd;fill:rgb(100%,100%,100%);fill-opacity:1;" d="M 168.339844 75.757813 L 164.824219 92.609375 L 166.992188 92.609375 L 168.339844 85.992188 C 168.648438 84.855469 169.269531 81.441406 172.785156 81.441406 C 173.300781 81.441406 174.953125 81.339844 174.953125 83.199219 C 174.953125 83.71875 174.746094 84.648438 174.644531 85.164063 L 172.992188 92.609375 L 175.160156 92.609375 L 176.921875 84.441406 C 177.023438 84.132813 177.128906 83.40625 177.128906 82.992188 C 177.128906 81.03125 175.78125 79.890625 173.714844 79.890625 C 171.957031 79.890625 170.613281 80.511719 169.269531 81.753906 L 170.507813 75.757813 L 168.339844 75.757813 "/>
<path style=" stroke:none;fill-rule:evenodd;fill:rgb(100%,100%,100%);fill-opacity:1;" d="M 98.652344 107.1875 L 99.789063 101.707031 L 108.890625 101.707031 L 109.304688 99.742188 L 97.929688 99.742188 L 94.414063 116.699219 L 96.691406 116.699219 L 98.238281 109.046875 L 106.199219 109.046875 L 106.613281 107.1875 L 98.652344 107.1875 "/>
<path style=" stroke:none;fill-rule:evenodd;fill:rgb(100%,100%,100%);fill-opacity:1;" d="M 110.234375 104.394531 L 107.648438 116.699219 L 109.820313 116.699219 L 112.40625 104.394531 Z M 110.75 102.019531 L 112.921875 102.019531 L 113.4375 99.742188 L 111.269531 99.742188 L 110.75 102.019531 "/>
<path style=" stroke:none;fill-rule:evenodd;fill:rgb(100%,100%,100%);fill-opacity:1;" d="M 122.640625 103.878906 L 122.121094 103.878906 C 119.953125 103.878906 118.605469 104.601563 117.46875 106.359375 L 117.367188 106.359375 L 117.78125 104.394531 L 115.714844 104.394531 L 113.128906 116.699219 L 115.300781 116.699219 L 116.4375 111.011719 C 116.746094 109.460938 117.78125 105.429688 121.710938 105.429688 C 121.914063 105.429688 122.121094 105.429688 122.328125 105.53125 L 122.640625 103.878906 "/>
<path style=" stroke:none;fill-rule:evenodd;fill:rgb(100%,100%,100%);fill-opacity:1;" d="M 121.914063 112.976563 C 121.605469 115.042969 122.949219 117.113281 126.878906 117.113281 C 131.839844 117.113281 132.464844 114.011719 132.464844 112.5625 C 132.464844 110.597656 131.117188 110.183594 128.84375 109.667969 C 126.984375 109.152344 125.742188 109.152344 125.742188 107.808594 C 125.742188 106.359375 126.984375 105.429688 128.84375 105.429688 C 131.015625 105.429688 131.117188 106.773438 131.117188 107.289063 L 131.117188 107.601563 L 133.1875 107.601563 C 133.289063 106.152344 132.773438 103.878906 128.738281 103.878906 C 123.777344 103.878906 123.46875 107.1875 123.46875 108.324219 C 123.46875 110.082031 124.8125 110.597656 126.777344 111.011719 C 128.84375 111.425781 130.289063 111.53125 130.289063 112.976563 C 130.289063 114.421875 128.945313 115.664063 126.878906 115.664063 C 124.605469 115.664063 123.882813 114.320313 123.984375 112.976563 L 121.914063 112.976563 "/>
<path style=" stroke:none;fill-rule:evenodd;fill:rgb(100%,100%,100%);fill-opacity:1;" d="M 135.253906 104.394531 L 134.941406 105.945313 L 137.113281 105.945313 L 135.355469 114.113281 C 135.355469 114.421875 135.253906 114.941406 135.253906 115.25 C 135.253906 117.113281 136.804688 117.113281 137.527344 117.113281 C 138.25 117.113281 138.976563 117.007813 139.597656 116.800781 L 140.011719 115.25 C 139.597656 115.355469 139.078125 115.457031 138.5625 115.457031 C 137.425781 115.457031 137.527344 114.839844 137.527344 114.527344 C 137.527344 114.21875 137.632813 114.011719 137.632813 113.703125 L 139.285156 105.945313 L 141.972656 105.945313 L 142.285156 104.394531 L 139.597656 104.394531 L 140.320313 100.777344 L 138.25 100.777344 L 137.425781 104.394531 L 135.253906 104.394531 "/>
</g>
</svg>
